<?xml version="1.0" encoding="UTF-8"?>
<svg xmlns="http://www.w3.org/2000/svg" xmlns:xlink="http://www.w3.org/1999/xlink" width="1280" height="720" viewBox="0 0 1280 720">
<defs>
<g>
<g id="glyph-0-0">
<path d="M 3.347656 -5.453125 C 3.160156 -4.453125 2.851562 -3.6875 2.425781 -3.152344 L 2.78125 -2.851562 C 3.007812 -3.132812 3.207031 -3.480469 3.386719 -3.90625 L 3.847656 -3.90625 C 3.59375 -2.625 3.125 -1.6875 2.441406 -1.101562 L 2.753906 -0.738281 C 3.5 -1.398438 4.007812 -2.453125 4.273438 -3.90625 L 4.792969 -3.90625 C 4.667969 -2.894531 4.472656 -2.074219 4.214844 -1.453125 C 3.933594 -0.839844 3.519531 -0.28125 2.960938 0.226562 L 3.253906 0.605469 C 3.859375 0.0546875 4.3125 -0.574219 4.621094 -1.265625 C 4.878906 -1.914062 5.082031 -2.792969 5.226562 -3.90625 L 5.679688 -3.90625 C 5.667969 -1.972656 5.640625 -0.8125 5.59375 -0.441406 C 5.535156 -0.0117188 5.300781 0.199219 4.894531 0.199219 C 4.738281 0.199219 4.558594 0.1875 4.347656 0.171875 L 4.460938 0.605469 C 4.699219 0.621094 4.867188 0.625 4.960938 0.625 C 5.605469 0.625 5.96875 0.332031 6.039062 -0.253906 C 6.105469 -0.773438 6.140625 -2.148438 6.140625 -4.375 L 3.554688 -4.375 C 3.648438 -4.667969 3.726562 -4.988281 3.800781 -5.332031 Z M 0.933594 -3.585938 L 1.480469 -3.585938 L 1.480469 -1.785156 C 1.105469 -1.640625 0.71875 -1.519531 0.320312 -1.425781 L 0.433594 -0.960938 C 0.792969 -1.074219 1.140625 -1.199219 1.480469 -1.332031 L 1.480469 0.667969 L 1.945312 0.667969 L 1.945312 -1.535156 C 2.125 -1.621094 2.308594 -1.707031 2.480469 -1.800781 L 2.480469 -2.253906 C 2.308594 -2.160156 2.132812 -2.074219 1.945312 -1.988281 L 1.945312 -3.585938 L 2.507812 -3.585938 L 2.507812 -4.054688 L 1.945312 -4.054688 L 1.945312 -5.441406 L 1.480469 -5.441406 L 1.480469 -4.054688 L 1.011719 -4.054688 C 1.054688 -4.339844 1.078125 -4.632812 1.09375 -4.925781 L 0.671875 -4.960938 C 0.640625 -4.179688 0.5 -3.441406 0.246094 -2.734375 L 0.667969 -2.613281 C 0.773438 -2.925781 0.859375 -3.253906 0.933594 -3.585938 Z "/>
</g>
<g id="glyph-0-1">
<path d="M 1.074219 -2.925781 L 1.074219 0.671875 L 1.546875 0.671875 L 1.546875 -3.699219 C 1.808594 -4.195312 2.019531 -4.71875 2.195312 -5.273438 L 1.761719 -5.472656 C 1.453125 -4.375 0.953125 -3.398438 0.261719 -2.546875 L 0.398438 -2.066406 C 0.640625 -2.339844 0.867188 -2.625 1.074219 -2.925781 Z M 2.082031 -4.308594 L 2.082031 -3.839844 L 3.378906 -3.839844 C 3.058594 -2.613281 2.535156 -1.613281 1.785156 -0.839844 L 2.035156 -0.425781 C 2.851562 -1.3125 3.433594 -2.453125 3.765625 -3.839844 L 3.847656 -3.839844 L 3.847656 -1.167969 L 2.828125 -1.167969 L 2.828125 -0.707031 L 3.847656 -0.707031 L 3.847656 0.667969 L 4.320312 0.667969 L 4.320312 -0.707031 L 5.355469 -0.707031 L 5.355469 -1.167969 L 4.320312 -1.167969 L 4.320312 -3.839844 L 4.398438 -3.839844 C 4.707031 -2.605469 5.273438 -1.492188 6.085938 -0.507812 L 6.398438 -0.898438 C 5.625 -1.761719 5.085938 -2.738281 4.78125 -3.839844 L 6.140625 -3.839844 L 6.140625 -4.308594 L 4.320312 -4.308594 L 4.320312 -5.453125 L 3.847656 -5.453125 L 3.847656 -4.308594 Z "/>
</g>
<g id="glyph-0-2">
<path d="M 1.71875 -5.488281 C 1.40625 -4.445312 0.898438 -3.519531 0.207031 -2.71875 L 0.367188 -2.207031 C 0.625 -2.488281 0.867188 -2.785156 1.09375 -3.101562 L 1.09375 0.679688 L 1.578125 0.679688 L 1.578125 -3.886719 C 1.8125 -4.328125 2.011719 -4.785156 2.171875 -5.28125 Z M 2.566406 -5.148438 L 2.566406 -3.046875 L 3.894531 -3.046875 L 3.894531 -2.320312 L 2.039062 -2.320312 L 2.039062 -1.851562 L 3.421875 -1.851562 C 3.019531 -1.132812 2.5 -0.558594 1.859375 -0.121094 L 2.132812 0.3125 C 2.808594 -0.207031 3.367188 -0.925781 3.8125 -1.851562 L 3.894531 -1.851562 L 3.894531 0.667969 L 4.375 0.667969 L 4.375 -1.851562 L 4.453125 -1.851562 C 4.886719 -0.992188 5.433594 -0.273438 6.101562 0.308594 L 6.40625 -0.113281 C 5.746094 -0.605469 5.226562 -1.1875 4.847656 -1.851562 L 6.292969 -1.851562 L 6.292969 -2.320312 L 4.375 -2.320312 L 4.375 -3.046875 L 5.714844 -3.046875 L 5.714844 -5.148438 Z M 5.242188 -3.507812 L 3.039062 -3.507812 L 3.039062 -4.6875 L 5.242188 -4.6875 Z "/>
</g>
<g id="glyph-0-3">
<path d="M 4.195312 -5.425781 L 4.195312 -4.734375 L 2.886719 -4.734375 L 2.886719 -4.300781 L 4.195312 -4.300781 L 4.195312 -3.519531 L 2.648438 -3.519531 L 2.648438 -3.066406 L 6.285156 -3.066406 L 6.285156 -3.519531 L 4.667969 -3.519531 L 4.667969 -4.300781 L 6.035156 -4.300781 L 6.035156 -4.734375 L 4.667969 -4.734375 L 4.667969 -5.425781 Z M 2.539062 -2.214844 L 2.539062 -1.765625 L 4.992188 -1.765625 L 4.992188 -0.09375 C 4.992188 0.0859375 4.898438 0.179688 4.714844 0.179688 C 4.453125 0.179688 4.179688 0.167969 3.894531 0.152344 L 4 0.621094 L 4.886719 0.621094 C 5.273438 0.621094 5.472656 0.421875 5.472656 0.0273438 L 5.472656 -1.765625 L 6.292969 -1.765625 L 6.292969 -2.214844 L 5.472656 -2.214844 L 5.472656 -2.726562 L 4.992188 -2.726562 L 4.992188 -2.214844 Z M 1.113281 0.605469 C 1.492188 0.605469 1.6875 0.40625 1.6875 0.0078125 L 1.6875 -1.886719 C 1.925781 -1.988281 2.160156 -2.09375 2.386719 -2.214844 L 2.386719 -2.707031 C 2.160156 -2.585938 1.925781 -2.472656 1.6875 -2.367188 L 1.6875 -3.707031 L 2.378906 -3.707031 L 2.378906 -4.167969 L 1.6875 -4.167969 L 1.6875 -5.359375 L 1.214844 -5.359375 L 1.214844 -4.167969 L 0.394531 -4.167969 L 0.394531 -3.707031 L 1.214844 -3.707031 L 1.214844 -2.179688 C 0.921875 -2.074219 0.625 -1.988281 0.320312 -1.914062 L 0.441406 -1.433594 C 0.695312 -1.511719 0.953125 -1.601562 1.214844 -1.695312 L 1.214844 -0.113281 C 1.214844 0.078125 1.121094 0.179688 0.945312 0.179688 C 0.78125 0.179688 0.605469 0.167969 0.425781 0.148438 L 0.527344 0.605469 Z M 3.234375 -1.453125 L 2.847656 -1.21875 C 3.1875 -0.8125 3.453125 -0.445312 3.652344 -0.113281 L 4.035156 -0.378906 C 3.847656 -0.6875 3.582031 -1.046875 3.234375 -1.453125 Z "/>
</g>
<g id="glyph-0-4">
<path d="M 1.535156 -5.46875 L 1.535156 -5.019531 L 0.441406 -5.019531 L 0.441406 -4.625 L 1.535156 -4.625 L 1.535156 -4.167969 L 0.585938 -4.167969 L 0.585938 -3.78125 L 1.535156 -3.78125 L 1.535156 -3.3125 L 0.328125 -3.3125 L 0.328125 -2.90625 L 3.132812 -2.90625 L 3.132812 -3.3125 L 1.992188 -3.3125 L 1.992188 -3.78125 L 2.878906 -3.78125 L 2.878906 -4.167969 L 1.992188 -4.167969 L 1.992188 -4.625 L 3.019531 -4.625 L 3.019531 -5.019531 L 1.992188 -5.019531 L 1.992188 -5.46875 Z M 1.105469 -1.253906 L 2.433594 -1.253906 L 2.433594 -0.792969 L 1.105469 -0.792969 Z M 2.433594 -1.625 L 1.105469 -1.625 L 1.105469 -2.121094 L 2.433594 -2.121094 Z M 1.105469 -0.421875 L 2.433594 -0.421875 L 2.433594 0.0546875 C 2.433594 0.160156 2.375 0.21875 2.261719 0.21875 L 1.867188 0.199219 L 1.972656 0.621094 L 2.398438 0.621094 C 2.71875 0.621094 2.878906 0.460938 2.878906 0.148438 L 2.878906 -2.511719 L 0.640625 -2.511719 L 0.640625 0.652344 L 1.105469 0.652344 Z M 4.234375 -5.5 C 3.921875 -4.925781 3.519531 -4.46875 3.027344 -4.113281 L 3.3125 -3.765625 C 3.339844 -3.792969 3.375 -3.8125 3.40625 -3.839844 L 3.40625 -3.433594 L 4.375 -3.433594 L 4.375 -2.671875 L 3.195312 -2.671875 L 3.195312 -2.226562 L 4.375 -2.226562 L 4.375 -1.453125 L 3.367188 -1.453125 L 3.367188 -1 L 4.375 -1 L 4.375 -0.0585938 C 4.375 0.113281 4.285156 0.199219 4.113281 0.199219 C 3.925781 0.199219 3.726562 0.1875 3.527344 0.167969 L 3.625 0.621094 L 4.28125 0.621094 C 4.648438 0.621094 4.832031 0.425781 4.832031 0.0546875 L 4.832031 -1 L 6.039062 -1 L 6.039062 -2.226562 L 6.386719 -2.226562 L 6.386719 -2.671875 L 6.039062 -2.671875 L 6.039062 -3.878906 L 5.214844 -3.878906 C 5.414062 -4.105469 5.613281 -4.386719 5.820312 -4.714844 L 5.820312 -5.046875 L 4.488281 -5.046875 C 4.554688 -5.160156 4.621094 -5.28125 4.6875 -5.398438 Z M 4.832031 -3.433594 L 5.582031 -3.433594 L 5.582031 -2.671875 L 4.832031 -2.671875 Z M 4.832031 -2.226562 L 5.582031 -2.226562 L 5.582031 -1.453125 L 4.832031 -1.453125 Z M 3.453125 -3.878906 C 3.726562 -4.105469 3.980469 -4.359375 4.207031 -4.648438 L 5.273438 -4.648438 C 5.074219 -4.359375 4.867188 -4.105469 4.660156 -3.878906 Z "/>
</g>
<g id="glyph-0-5">
<path d="M 3.378906 -5.414062 L 3.378906 -0.0859375 L 1.988281 -0.0859375 L 1.988281 -4.246094 L 1.507812 -4.246094 L 1.507812 -0.0859375 L 0.375 -0.0859375 L 0.375 0.378906 L 6.292969 0.378906 L 6.292969 -0.0859375 L 3.875 -0.0859375 L 3.875 -2.78125 L 5.925781 -2.78125 L 5.925781 -3.246094 L 3.875 -3.246094 L 3.875 -5.414062 Z "/>
</g>
<g id="glyph-0-6">
<path d="M 0.707031 -3.421875 L 0.707031 -1.386719 L 3.152344 -1.386719 L 3.152344 -3.421875 Z M 2.679688 -1.820312 L 1.1875 -1.820312 L 1.1875 -2.972656 L 2.679688 -2.972656 Z M 3.359375 -1.007812 C 2.398438 -0.734375 1.40625 -0.535156 0.367188 -0.398438 L 0.488281 0.0742188 C 1.511719 -0.09375 2.472656 -0.300781 3.359375 -0.539062 Z M 5.605469 0.648438 C 5.941406 0.648438 6.199219 0.179688 6.378906 -0.738281 L 5.96875 -1.011719 C 5.855469 -0.253906 5.714844 0.125 5.554688 0.125 C 5.367188 0.125 5.160156 -0.046875 4.925781 -0.394531 C 4.855469 -0.511719 4.785156 -0.652344 4.71875 -0.808594 C 5.1875 -1.488281 5.574219 -2.328125 5.886719 -3.332031 L 5.46875 -3.558594 C 5.214844 -2.71875 4.898438 -1.992188 4.527344 -1.378906 C 4.472656 -1.558594 4.433594 -1.753906 4.394531 -1.960938 C 4.28125 -2.585938 4.21875 -3.308594 4.207031 -4.121094 L 6.292969 -4.121094 L 6.292969 -4.585938 L 5.648438 -4.585938 C 5.535156 -4.867188 5.414062 -5.113281 5.292969 -5.332031 L 4.808594 -5.253906 C 4.941406 -5.054688 5.066406 -4.828125 5.179688 -4.585938 L 4.199219 -4.585938 L 4.199219 -5.441406 L 3.71875 -5.441406 L 3.71875 -4.585938 L 0.367188 -4.585938 L 0.367188 -4.121094 L 3.71875 -4.121094 C 3.726562 -3.199219 3.808594 -2.398438 3.960938 -1.71875 C 4.027344 -1.425781 4.101562 -1.152344 4.195312 -0.898438 C 3.820312 -0.40625 3.394531 -0.0195312 2.921875 0.265625 L 3.179688 0.679688 C 3.625 0.414062 4.039062 0.0546875 4.414062 -0.398438 C 4.480469 -0.261719 4.558594 -0.125 4.652344 0 C 4.960938 0.425781 5.273438 0.640625 5.605469 0.648438 Z "/>
</g>
<g id="glyph-0-7">
<path d="M 1.960938 -5.472656 C 1.714844 -4.480469 1.234375 -3.640625 0.519531 -2.960938 L 0.839844 -2.546875 C 1.28125 -2.988281 1.640625 -3.488281 1.925781 -4.046875 L 5.394531 -4.046875 C 5.378906 -2.605469 5.367188 -1.6875 5.359375 -1.28125 C 5.328125 -0.648438 5.226562 -0.246094 5.066406 -0.078125 C 4.90625 0.078125 4.652344 0.167969 4.3125 0.167969 C 4.035156 0.167969 3.761719 0.160156 3.488281 0.160156 L 3.621094 0.632812 C 3.941406 0.621094 4.207031 0.621094 4.425781 0.621094 C 4.925781 0.621094 5.273438 0.507812 5.460938 0.285156 C 5.648438 0.0742188 5.753906 -0.332031 5.792969 -0.941406 C 5.820312 -1.320312 5.855469 -2.511719 5.886719 -4.511719 L 2.132812 -4.511719 C 2.246094 -4.800781 2.339844 -5.101562 2.421875 -5.421875 Z M 4.472656 -1.753906 C 3.558594 -1.308594 2.460938 -0.925781 1.179688 -0.621094 L 1.378906 -0.167969 C 2.660156 -0.5 3.734375 -0.886719 4.585938 -1.320312 Z M 2.207031 -3.292969 L 1.925781 -2.953125 C 2.621094 -2.640625 3.1875 -2.300781 3.632812 -1.933594 L 3.925781 -2.28125 C 3.445312 -2.648438 2.875 -2.988281 2.207031 -3.292969 Z "/>
</g>
<g id="glyph-0-8">
<path d="M 2.359375 -4.898438 L 2.359375 -4.460938 L 4.058594 -4.460938 L 4.058594 -3.894531 L 2.605469 -3.894531 L 2.605469 -2.195312 L 3.746094 -2.195312 C 3.433594 -1.679688 2.914062 -1.234375 2.179688 -0.859375 L 2.480469 -0.480469 C 3.195312 -0.898438 3.71875 -1.40625 4.058594 -2 L 4.058594 -0.152344 L 4.507812 -0.152344 L 4.507812 -2.195312 L 5.960938 -2.195312 L 5.960938 -3.894531 L 4.507812 -3.894531 L 4.507812 -4.460938 L 6.179688 -4.460938 L 6.179688 -4.898438 L 4.507812 -4.898438 L 4.507812 -5.441406 L 4.058594 -5.441406 L 4.058594 -4.898438 Z M 5.519531 -2.621094 L 4.507812 -2.621094 L 4.507812 -3.472656 L 5.519531 -3.472656 Z M 4.058594 -2.621094 L 3.054688 -2.621094 L 3.054688 -3.472656 L 4.058594 -3.472656 Z M 5.035156 -1.992188 L 4.71875 -1.699219 C 5.226562 -1.285156 5.621094 -0.898438 5.914062 -0.527344 L 6.234375 -0.847656 C 5.90625 -1.234375 5.507812 -1.613281 5.035156 -1.992188 Z M 0.839844 -5.339844 L 0.511719 -5.027344 C 1 -4.652344 1.378906 -4.300781 1.660156 -3.96875 L 2 -4.300781 C 1.6875 -4.648438 1.300781 -4.992188 0.839844 -5.339844 Z M 4.726562 0.546875 L 6.261719 0.546875 L 6.378906 0.0664062 C 6.207031 0.078125 5.953125 0.0859375 5.625 0.09375 C 5.300781 0.101562 4.980469 0.105469 4.660156 0.105469 C 4.140625 0.105469 3.699219 0.101562 3.347656 0.09375 C 2.945312 0.078125 2.648438 0.0273438 2.441406 -0.0664062 C 2.253906 -0.152344 2.082031 -0.292969 1.921875 -0.488281 C 1.859375 -0.554688 1.808594 -0.601562 1.753906 -0.640625 L 1.753906 -3.132812 L 0.359375 -3.132812 L 0.359375 -2.695312 L 1.308594 -2.695312 L 1.308594 -0.667969 C 1.039062 -0.546875 0.726562 -0.207031 0.378906 0.351562 L 0.738281 0.679688 C 1.101562 0.0664062 1.359375 -0.238281 1.519531 -0.238281 C 1.601562 -0.238281 1.6875 -0.1875 1.78125 -0.0742188 C 1.988281 0.167969 2.21875 0.332031 2.488281 0.414062 C 2.753906 0.488281 3.105469 0.527344 3.535156 0.535156 C 3.960938 0.539062 4.359375 0.546875 4.726562 0.546875 Z "/>
</g>
<g id="glyph-0-9">
<path d="M 0.820312 -5.378906 L 0.488281 -5.066406 C 0.972656 -4.679688 1.351562 -4.328125 1.632812 -3.992188 L 1.972656 -4.332031 C 1.660156 -4.679688 1.273438 -5.027344 0.820312 -5.378906 Z M 4.714844 0.546875 L 6.261719 0.546875 L 6.378906 0.0664062 C 6.199219 0.078125 5.945312 0.0859375 5.625 0.09375 C 5.292969 0.101562 4.96875 0.105469 4.648438 0.105469 C 4.132812 0.105469 3.707031 0.101562 3.359375 0.09375 C 2.972656 0.078125 2.671875 0.0273438 2.472656 -0.0664062 C 2.285156 -0.152344 2.121094 -0.292969 1.960938 -0.488281 C 1.90625 -0.546875 1.859375 -0.59375 1.808594 -0.632812 L 1.808594 -3.132812 L 0.40625 -3.132812 L 0.40625 -2.695312 L 1.359375 -2.695312 L 1.359375 -0.667969 C 1.078125 -0.546875 0.765625 -0.207031 0.40625 0.351562 L 0.765625 0.679688 C 1.140625 0.0664062 1.40625 -0.238281 1.566406 -0.238281 C 1.648438 -0.238281 1.734375 -0.1875 1.820312 -0.0742188 C 2.027344 0.167969 2.261719 0.332031 2.511719 0.414062 C 2.78125 0.488281 3.125 0.527344 3.546875 0.535156 C 3.96875 0.539062 4.355469 0.546875 4.714844 0.546875 Z M 2.71875 -5.066406 L 2.71875 -4.625 L 5.78125 -4.625 L 5.78125 -5.066406 Z M 2.3125 -3.554688 L 2.3125 -3.09375 L 3.714844 -3.09375 C 3.195312 -1.78125 2.800781 -1.078125 2.519531 -1 L 2.640625 -0.578125 C 3.828125 -0.695312 4.785156 -0.832031 5.519531 -1.007812 C 5.601562 -0.820312 5.671875 -0.621094 5.742188 -0.414062 L 6.167969 -0.527344 C 5.886719 -1.3125 5.566406 -2.011719 5.207031 -2.625 L 4.8125 -2.5 C 5.007812 -2.152344 5.1875 -1.792969 5.347656 -1.421875 C 4.78125 -1.285156 4.066406 -1.167969 3.199219 -1.074219 C 3.492188 -1.472656 3.820312 -2.148438 4.1875 -3.09375 L 6.265625 -3.09375 L 6.265625 -3.554688 Z "/>
</g>
<g id="glyph-0-10">
<path d="M 0.601562 -4.980469 L 0.601562 -4.519531 L 3.011719 -4.519531 L 3.011719 -4.980469 Z M 0.339844 -3.179688 L 0.339844 -2.714844 L 1.265625 -2.714844 C 0.933594 -1.5 0.667969 -0.761719 0.464844 -0.488281 C 0.441406 -0.472656 0.40625 -0.460938 0.359375 -0.445312 L 0.472656 0.0078125 C 1.300781 -0.140625 2.074219 -0.339844 2.78125 -0.59375 C 2.847656 -0.441406 2.914062 -0.28125 2.980469 -0.105469 L 3.394531 -0.320312 C 3.113281 -0.992188 2.8125 -1.613281 2.492188 -2.1875 L 2.085938 -1.988281 C 2.261719 -1.679688 2.425781 -1.351562 2.601562 -0.992188 C 2.082031 -0.800781 1.554688 -0.648438 1.027344 -0.539062 C 1.226562 -0.980469 1.460938 -1.699219 1.726562 -2.714844 L 3.265625 -2.714844 L 3.265625 -3.179688 Z M 4.265625 -5.425781 L 4.265625 -4.082031 L 3.367188 -4.082031 L 3.367188 -3.613281 L 4.265625 -3.613281 L 4.265625 -3.535156 C 4.253906 -1.738281 3.828125 -0.441406 2.992188 0.367188 L 3.351562 0.679688 C 4.261719 -0.207031 4.726562 -1.613281 4.746094 -3.535156 L 4.746094 -3.613281 L 5.734375 -3.613281 C 5.71875 -1.820312 5.695312 -0.746094 5.652344 -0.394531 C 5.601562 -0.0117188 5.40625 0.179688 5.082031 0.179688 C 4.898438 0.179688 4.6875 0.167969 4.445312 0.152344 L 4.554688 0.578125 C 4.832031 0.59375 5.027344 0.601562 5.140625 0.601562 C 5.714844 0.601562 6.039062 0.328125 6.105469 -0.214844 C 6.167969 -0.707031 6.199219 -1.992188 6.199219 -4.082031 L 4.746094 -4.082031 L 4.746094 -5.425781 Z "/>
</g>
</g>
</defs>
<g fill="rgb(51.372549%, 75.686275%, 40.392157%)" fill-opacity="1">
<use xlink:href="#glyph-0-0" x="30" y="27.067383"/>
<use xlink:href="#glyph-0-1" x="37" y="27.067383"/>
<use xlink:href="#glyph-0-2" x="44" y="27.067383"/>
<use xlink:href="#glyph-0-3" x="51" y="27.067383"/>
<use xlink:href="#glyph-0-4" x="58" y="27.067383"/>
<use xlink:href="#glyph-0-5" x="65" y="27.067383"/>
<use xlink:href="#glyph-0-6" x="72" y="27.067383"/>
<use xlink:href="#glyph-0-7" x="79" y="27.067383"/>
<use xlink:href="#glyph-0-8" x="86" y="27.067383"/>
<use xlink:href="#glyph-0-9" x="93" y="27.067383"/>
<use xlink:href="#glyph-0-10" x="100" y="27.067383"/>
</g>
</svg>
