<?xml version="1.0" encoding="UTF-8"?>
<svg xmlns="http://www.w3.org/2000/svg" xmlns:xlink="http://www.w3.org/1999/xlink" width="1280" height="720" viewBox="0 0 1280 720">
<defs>
<g>
<g id="glyph-0-0">
<path d="M 5.921875 -2.699219 L 2.800781 -2.699219 L 2.800781 -0.546875 L 3.265625 -0.546875 L 3.265625 -2.285156 L 5.453125 -2.285156 L 5.453125 -0.578125 L 5.921875 -0.578125 Z M 3.027344 -5.21875 L 2.960938 -4.386719 L 2.425781 -4.386719 L 2.425781 -3.980469 L 2.925781 -3.980469 L 2.851562 -3.121094 L 5.808594 -3.121094 L 5.859375 -3.980469 L 6.367188 -3.980469 L 6.367188 -4.386719 L 5.886719 -4.386719 L 5.941406 -5.21875 Z M 3.320312 -3.492188 L 3.367188 -4.007812 L 4.152344 -4.007812 L 4.105469 -3.492188 Z M 3.394531 -4.347656 L 3.441406 -4.847656 L 4.234375 -4.847656 L 4.1875 -4.347656 Z M 4.640625 -4.847656 L 5.5 -4.847656 L 5.460938 -4.347656 L 4.59375 -4.347656 Z M 5.433594 -4.007812 L 5.394531 -3.492188 L 4.507812 -3.492188 L 4.558594 -4.007812 Z M 4.113281 -1.90625 L 4.113281 -1.464844 C 4.101562 -1.019531 3.960938 -0.652344 3.699219 -0.375 C 3.425781 -0.105469 2.945312 0.105469 2.265625 0.273438 L 2.519531 0.679688 C 3.238281 0.5 3.753906 0.246094 4.074219 -0.0742188 C 4.394531 -0.425781 4.566406 -0.894531 4.585938 -1.464844 L 4.585938 -1.90625 Z M 0.507812 -4.160156 C 0.488281 -3.535156 0.398438 -2.933594 0.238281 -2.359375 L 0.621094 -2.253906 C 0.765625 -2.847656 0.847656 -3.472656 0.875 -4.132812 Z M 2.105469 -4.292969 L 1.785156 -4.1875 C 1.941406 -3.71875 2.066406 -3.238281 2.171875 -2.746094 L 2.511719 -2.828125 C 2.394531 -3.378906 2.261719 -3.867188 2.105469 -4.292969 Z M 4.765625 -0.648438 L 4.527344 -0.285156 C 5.085938 -0.046875 5.632812 0.273438 6.171875 0.679688 L 6.433594 0.28125 C 5.925781 -0.078125 5.375 -0.394531 4.765625 -0.648438 Z M 1.195312 -5.433594 L 1.195312 0.648438 L 1.660156 0.648438 L 1.660156 -5.433594 Z "/>
</g>
<g id="glyph-0-1">
<path d="M 0.492188 -4.160156 C 0.472656 -3.519531 0.394531 -2.914062 0.253906 -2.339844 L 0.648438 -2.226562 C 0.78125 -2.828125 0.859375 -3.46875 0.875 -4.132812 Z M 2.167969 -4.300781 L 1.8125 -4.1875 C 1.964844 -3.8125 2.09375 -3.421875 2.195312 -3.011719 L 2.527344 -3.101562 C 2.464844 -2.96875 2.398438 -2.828125 2.328125 -2.679688 L 2.679688 -2.359375 C 2.914062 -2.773438 3.09375 -3.226562 3.214844 -3.714844 L 4.253906 -3.714844 L 4.253906 -2.101562 L 2.726562 -2.101562 L 2.726562 -1.625 L 4.253906 -1.625 L 4.253906 0 L 2.347656 0 L 2.347656 0.464844 L 6.375 0.464844 L 6.375 0 L 4.746094 0 L 4.746094 -1.625 L 6.101562 -1.625 L 6.101562 -2.101562 L 4.746094 -2.101562 L 4.746094 -3.714844 L 6.199219 -3.714844 L 6.199219 -4.171875 L 4.746094 -4.171875 L 4.746094 -5.421875 L 4.253906 -5.421875 L 4.253906 -4.171875 L 3.300781 -4.171875 C 3.339844 -4.425781 3.367188 -4.695312 3.378906 -4.972656 L 2.945312 -5.035156 C 2.914062 -4.375 2.78125 -3.753906 2.554688 -3.171875 C 2.441406 -3.601562 2.3125 -3.972656 2.167969 -4.300781 Z M 1.214844 -5.425781 L 1.214844 0.640625 L 1.699219 0.640625 L 1.699219 -5.425781 Z "/>
</g>
<g id="glyph-0-2">
<path d="M 1.332031 -5.21875 L 1.332031 -2.90625 L 5.386719 -2.90625 L 5.386719 -5.21875 Z M 4.914062 -3.3125 L 1.808594 -3.3125 L 1.808594 -3.859375 L 4.914062 -3.859375 Z M 1.808594 -4.253906 L 1.808594 -4.808594 L 4.914062 -4.808594 L 4.914062 -4.253906 Z M 3.167969 -1.972656 L 3.167969 0.0195312 C 3.027344 -0.0078125 2.90625 -0.0390625 2.800781 -0.0742188 C 2.453125 -0.199219 2.132812 -0.492188 1.851562 -0.960938 C 1.941406 -1.179688 2.011719 -1.414062 2.082031 -1.660156 L 1.625 -1.738281 C 1.40625 -0.90625 0.988281 -0.238281 0.375 0.253906 L 0.6875 0.648438 C 1.085938 0.320312 1.421875 -0.0859375 1.679688 -0.578125 C 1.945312 -0.140625 2.253906 0.152344 2.59375 0.308594 C 2.988281 0.472656 3.734375 0.558594 4.832031 0.558594 C 5.214844 0.566406 5.640625 0.574219 6.121094 0.574219 L 6.253906 0.121094 C 5.859375 0.132812 5.375 0.140625 4.800781 0.140625 C 4.359375 0.140625 3.972656 0.121094 3.652344 0.09375 L 3.652344 -0.792969 L 5.574219 -0.792969 L 5.574219 -1.21875 L 3.652344 -1.21875 L 3.652344 -1.972656 L 6.285156 -1.972656 L 6.285156 -2.414062 L 0.386719 -2.414062 L 0.386719 -1.972656 Z "/>
</g>
<g id="glyph-0-3">
<path d="M 3.347656 -5.453125 C 3.160156 -4.453125 2.851562 -3.6875 2.425781 -3.152344 L 2.78125 -2.851562 C 3.007812 -3.132812 3.207031 -3.480469 3.386719 -3.90625 L 3.847656 -3.90625 C 3.59375 -2.625 3.125 -1.6875 2.441406 -1.101562 L 2.753906 -0.738281 C 3.5 -1.398438 4.007812 -2.453125 4.273438 -3.90625 L 4.792969 -3.90625 C 4.667969 -2.894531 4.472656 -2.074219 4.214844 -1.453125 C 3.933594 -0.839844 3.519531 -0.28125 2.960938 0.226562 L 3.253906 0.605469 C 3.859375 0.0546875 4.3125 -0.574219 4.621094 -1.265625 C 4.878906 -1.914062 5.082031 -2.792969 5.226562 -3.90625 L 5.679688 -3.90625 C 5.667969 -1.972656 5.640625 -0.8125 5.59375 -0.441406 C 5.535156 -0.0117188 5.300781 0.199219 4.894531 0.199219 C 4.738281 0.199219 4.558594 0.1875 4.347656 0.171875 L 4.460938 0.605469 C 4.699219 0.621094 4.867188 0.625 4.960938 0.625 C 5.605469 0.625 5.96875 0.332031 6.039062 -0.253906 C 6.105469 -0.773438 6.140625 -2.148438 6.140625 -4.375 L 3.554688 -4.375 C 3.648438 -4.667969 3.726562 -4.988281 3.800781 -5.332031 Z M 0.933594 -3.585938 L 1.480469 -3.585938 L 1.480469 -1.785156 C 1.105469 -1.640625 0.71875 -1.519531 0.320312 -1.425781 L 0.433594 -0.960938 C 0.792969 -1.074219 1.140625 -1.199219 1.480469 -1.332031 L 1.480469 0.667969 L 1.945312 0.667969 L 1.945312 -1.535156 C 2.125 -1.621094 2.308594 -1.707031 2.480469 -1.800781 L 2.480469 -2.253906 C 2.308594 -2.160156 2.132812 -2.074219 1.945312 -1.988281 L 1.945312 -3.585938 L 2.507812 -3.585938 L 2.507812 -4.054688 L 1.945312 -4.054688 L 1.945312 -5.441406 L 1.480469 -5.441406 L 1.480469 -4.054688 L 1.011719 -4.054688 C 1.054688 -4.339844 1.078125 -4.632812 1.09375 -4.925781 L 0.671875 -4.960938 C 0.640625 -4.179688 0.5 -3.441406 0.246094 -2.734375 L 0.667969 -2.613281 C 0.773438 -2.925781 0.859375 -3.253906 0.933594 -3.585938 Z "/>
</g>
<g id="glyph-0-4">
<path d="M 1.074219 -2.925781 L 1.074219 0.671875 L 1.546875 0.671875 L 1.546875 -3.699219 C 1.808594 -4.195312 2.019531 -4.71875 2.195312 -5.273438 L 1.761719 -5.472656 C 1.453125 -4.375 0.953125 -3.398438 0.261719 -2.546875 L 0.398438 -2.066406 C 0.640625 -2.339844 0.867188 -2.625 1.074219 -2.925781 Z M 2.082031 -4.308594 L 2.082031 -3.839844 L 3.378906 -3.839844 C 3.058594 -2.613281 2.535156 -1.613281 1.785156 -0.839844 L 2.035156 -0.425781 C 2.851562 -1.3125 3.433594 -2.453125 3.765625 -3.839844 L 3.847656 -3.839844 L 3.847656 -1.167969 L 2.828125 -1.167969 L 2.828125 -0.707031 L 3.847656 -0.707031 L 3.847656 0.667969 L 4.320312 0.667969 L 4.320312 -0.707031 L 5.355469 -0.707031 L 5.355469 -1.167969 L 4.320312 -1.167969 L 4.320312 -3.839844 L 4.398438 -3.839844 C 4.707031 -2.605469 5.273438 -1.492188 6.085938 -0.507812 L 6.398438 -0.898438 C 5.625 -1.761719 5.085938 -2.738281 4.78125 -3.839844 L 6.140625 -3.839844 L 6.140625 -4.308594 L 4.320312 -4.308594 L 4.320312 -5.453125 L 3.847656 -5.453125 L 3.847656 -4.308594 Z "/>
</g>
<g id="glyph-0-5">
<path d="M 2.695312 -4.292969 L 1.621094 -4.292969 C 1.753906 -4.625 1.851562 -4.992188 1.933594 -5.386719 L 1.453125 -5.453125 C 1.394531 -5.054688 1.300781 -4.667969 1.167969 -4.292969 L 0.546875 -4.292969 L 0.546875 0.445312 L 1.011719 0.445312 L 1.011719 -0.125 L 2.226562 -0.125 L 2.226562 0.253906 L 2.695312 0.253906 Z M 1.011719 -0.574219 L 1.011719 -2.035156 L 2.226562 -2.035156 L 2.226562 -0.574219 Z M 1.011719 -2.464844 L 1.011719 -3.839844 L 2.226562 -3.839844 L 2.226562 -2.464844 Z M 3.855469 -2.746094 L 3.46875 -2.507812 C 3.925781 -1.960938 4.292969 -1.464844 4.566406 -1.027344 L 4.945312 -1.292969 C 4.695312 -1.707031 4.332031 -2.195312 3.855469 -2.746094 Z M 6.140625 -4.285156 L 4.011719 -4.285156 C 4.132812 -4.632812 4.226562 -5.007812 4.308594 -5.398438 L 3.832031 -5.460938 C 3.660156 -4.511719 3.347656 -3.714844 2.878906 -3.058594 L 3.167969 -2.679688 C 3.425781 -3.019531 3.648438 -3.398438 3.832031 -3.820312 L 5.667969 -3.820312 C 5.652344 -1.898438 5.625 -0.746094 5.585938 -0.375 C 5.535156 -0.0351562 5.355469 0.140625 5.039062 0.140625 C 4.832031 0.140625 4.59375 0.132812 4.3125 0.121094 L 4.425781 0.558594 C 4.746094 0.574219 4.972656 0.585938 5.105469 0.585938 C 5.667969 0.585938 5.972656 0.328125 6.039062 -0.179688 C 6.105469 -0.699219 6.140625 -2.074219 6.140625 -4.285156 Z "/>
</g>
<g id="glyph-0-6">
<path d="M 0.535156 -4.945312 L 0.535156 -4.539062 L 1.714844 -4.539062 L 1.714844 -2.332031 L 0.433594 -2.332031 L 0.433594 -1.90625 L 1.820312 -1.90625 C 1.5 -1.511719 1.011719 -1.195312 0.351562 -0.941406 L 0.601562 -0.535156 C 1.375 -0.894531 1.933594 -1.351562 2.28125 -1.90625 L 4.375 -1.90625 C 4.71875 -1.351562 5.308594 -0.898438 6.132812 -0.554688 L 6.328125 -0.964844 C 5.660156 -1.195312 5.160156 -1.507812 4.839844 -1.90625 L 6.226562 -1.90625 L 6.226562 -2.332031 L 4.945312 -2.332031 L 4.945312 -4.539062 L 6.128906 -4.539062 L 6.128906 -4.945312 L 4.945312 -4.945312 L 4.945312 -5.453125 L 4.480469 -5.453125 L 4.480469 -4.945312 L 2.179688 -4.945312 L 2.179688 -5.453125 L 1.714844 -5.453125 L 1.714844 -4.945312 Z M 2.179688 -2.332031 L 2.179688 -2.8125 L 4.480469 -2.8125 L 4.480469 -2.332031 Z M 2.179688 -3.195312 L 2.179688 -3.667969 L 4.480469 -3.667969 L 4.480469 -3.195312 Z M 2.179688 -4.046875 L 2.179688 -4.539062 L 4.480469 -4.539062 L 4.480469 -4.046875 Z M 3.101562 -1.671875 L 3.101562 -1.140625 L 1.734375 -1.140625 L 1.734375 -0.714844 L 3.101562 -0.714844 L 3.101562 -0.0078125 L 0.765625 -0.0078125 L 0.765625 0.441406 L 5.855469 0.441406 L 5.855469 -0.0078125 L 3.566406 -0.0078125 L 3.566406 -0.714844 L 4.921875 -0.714844 L 4.921875 -1.140625 L 3.566406 -1.140625 L 3.566406 -1.671875 Z "/>
</g>
<g id="glyph-0-7">
<path d="M 0.480469 -4.21875 L 0.480469 -3.761719 L 2.660156 -3.761719 C 2.167969 -2.582031 1.367188 -1.613281 0.246094 -0.867188 L 0.519531 -0.421875 C 1.707031 -1.292969 2.546875 -2.40625 3.039062 -3.761719 L 3.085938 -3.761719 L 3.085938 -1.160156 L 1.714844 -1.160156 L 1.714844 -0.699219 L 3.085938 -0.699219 L 3.085938 0.667969 L 3.582031 0.667969 L 3.582031 -0.699219 L 5.007812 -0.699219 L 5.007812 -1.160156 L 3.582031 -1.160156 L 3.582031 -3.761719 L 3.632812 -3.761719 C 4.085938 -2.554688 4.898438 -1.464844 6.074219 -0.507812 L 6.398438 -0.921875 C 5.253906 -1.753906 4.453125 -2.699219 4.007812 -3.761719 L 6.179688 -3.761719 L 6.179688 -4.21875 L 3.582031 -4.21875 L 3.582031 -5.425781 L 3.085938 -5.425781 L 3.085938 -4.21875 Z "/>
</g>
<g id="glyph-0-8">
<path d="M 2.039062 -2.875 L 2.039062 -1.714844 L 3.613281 -1.714844 L 3.613281 -1.332031 L 1.71875 -1.332031 L 1.71875 0.667969 L 2.167969 0.667969 L 2.167969 -0.945312 L 3.613281 -0.945312 L 3.613281 -0.332031 C 3.273438 -0.308594 2.925781 -0.285156 2.566406 -0.261719 L 2.667969 0.140625 C 3.445312 0.0664062 4.179688 -0.0195312 4.875 -0.113281 C 4.90625 -0.0195312 4.941406 0.0859375 4.980469 0.191406 L 5.3125 0.046875 C 5.195312 -0.300781 5.054688 -0.625 4.894531 -0.945312 L 5.6875 -0.945312 L 5.6875 0 C 5.6875 0.171875 5.605469 0.261719 5.460938 0.261719 L 4.785156 0.238281 L 4.894531 0.648438 L 5.59375 0.648438 C 5.941406 0.648438 6.121094 0.460938 6.121094 0.09375 L 6.121094 -1.332031 L 4.066406 -1.332031 L 4.066406 -1.714844 L 5.667969 -1.714844 L 5.667969 -2.875 L 4.066406 -2.875 L 4.066406 -3.238281 C 4.761719 -3.273438 5.375 -3.320312 5.898438 -3.386719 L 5.699219 -3.734375 C 4.648438 -3.613281 3.320312 -3.554688 1.726562 -3.554688 L 1.847656 -3.195312 C 2.472656 -3.195312 3.066406 -3.207031 3.613281 -3.21875 L 3.613281 -2.875 Z M 4.039062 -0.945312 L 4.511719 -0.945312 C 4.59375 -0.800781 4.667969 -0.632812 4.738281 -0.453125 L 4.039062 -0.375 Z M 5.234375 -2.058594 L 4.066406 -2.058594 L 4.066406 -2.519531 L 5.234375 -2.519531 Z M 3.613281 -2.058594 L 2.480469 -2.058594 L 2.480469 -2.519531 L 3.613281 -2.519531 Z M 5.519531 -4.808594 L 5.519531 -4.3125 L 1.425781 -4.3125 L 1.425781 -4.808594 Z M 1.425781 -3.945312 L 5.980469 -3.945312 L 5.980469 -5.195312 L 0.960938 -5.195312 L 0.960938 -3.238281 C 0.953125 -1.8125 0.734375 -0.648438 0.300781 0.253906 L 0.652344 0.574219 C 1.160156 -0.488281 1.421875 -1.761719 1.425781 -3.238281 Z "/>
</g>
</g>
</defs>
<g fill="rgb(100%, 100%, 100%)" fill-opacity="1">
<use xlink:href="#glyph-0-0" x="30" y="27.067383"/>
<use xlink:href="#glyph-0-1" x="37" y="27.067383"/>
<use xlink:href="#glyph-0-2" x="44" y="27.067383"/>
<use xlink:href="#glyph-0-3" x="51" y="27.067383"/>
<use xlink:href="#glyph-0-4" x="58" y="27.067383"/>
<use xlink:href="#glyph-0-5" x="65" y="27.067383"/>
<use xlink:href="#glyph-0-6" x="72" y="27.067383"/>
<use xlink:href="#glyph-0-7" x="79" y="27.067383"/>
<use xlink:href="#glyph-0-8" x="86" y="27.067383"/>
<use xlink:href="#glyph-0-1" x="93" y="27.067383"/>
</g>
</svg>
