<?xml version="1.0" encoding="UTF-8"?>
<svg xmlns="http://www.w3.org/2000/svg" xmlns:xlink="http://www.w3.org/1999/xlink" width="1280" height="720" viewBox="0 0 1280 720">
<defs>
<g>
<g id="glyph-0-0">
<path d="M 2.464844 -4.945312 L 0.546875 -4.945312 L 0.546875 0.125 L 1.011719 0.125 L 1.011719 -0.480469 L 2 -0.480469 L 2 -0.0351562 L 2.464844 -0.0351562 Z M 1.011719 -0.925781 L 1.011719 -2.535156 L 2 -2.535156 L 2 -0.925781 Z M 1.011719 -2.980469 L 1.011719 -4.507812 L 2 -4.507812 L 2 -2.980469 Z M 3.425781 -2.960938 L 3.035156 -2.714844 C 3.433594 -2.101562 3.746094 -1.539062 3.980469 -1.039062 L 4.378906 -1.320312 C 4.160156 -1.785156 3.839844 -2.332031 3.425781 -2.960938 Z M 4.945312 0.601562 C 5.359375 0.601562 5.566406 0.386719 5.566406 -0.0351562 L 5.566406 -3.761719 L 6.386719 -3.761719 L 6.386719 -4.21875 L 5.566406 -4.21875 L 5.566406 -5.394531 L 5.082031 -5.394531 L 5.082031 -4.21875 L 2.773438 -4.21875 L 2.773438 -3.761719 L 5.082031 -3.761719 L 5.082031 -0.152344 C 5.082031 0.0546875 4.980469 0.160156 4.785156 0.160156 C 4.433594 0.160156 4.066406 0.148438 3.679688 0.132812 L 3.78125 0.601562 Z "/>
</g>
<g id="glyph-0-1">
<path d="M 2.039062 -3.640625 L 2.039062 -0.535156 L 4.574219 -0.535156 L 4.574219 -3.640625 Z M 4.125 -0.960938 L 2.492188 -0.960938 L 2.492188 -1.875 L 4.125 -1.875 Z M 2.492188 -2.300781 L 2.492188 -3.214844 L 4.125 -3.214844 L 4.125 -2.300781 Z M 5.320312 0.613281 C 5.765625 0.613281 5.992188 0.375 5.992188 -0.09375 L 5.992188 -5.113281 L 2.941406 -5.113281 L 2.941406 -4.667969 L 5.527344 -4.667969 L 5.527344 -0.226562 C 5.527344 0.0390625 5.421875 0.179688 5.21875 0.179688 L 4.640625 0.167969 L 4.761719 0.613281 Z M 0.660156 -4.339844 L 0.660156 0.671875 L 1.125 0.671875 L 1.125 -4.339844 Z M 1.625 -5.507812 L 1.1875 -5.3125 C 1.488281 -4.953125 1.761719 -4.539062 2.011719 -4.074219 L 2.441406 -4.300781 C 2.207031 -4.738281 1.933594 -5.140625 1.625 -5.507812 Z "/>
</g>
</g>
</defs>
<g fill="rgb(100%, 100%, 100%)" fill-opacity="1">
<use xlink:href="#glyph-0-0" x="30" y="27.067383"/>
<use xlink:href="#glyph-0-1" x="37" y="27.067383"/>
</g>
</svg>
