<?xml version="1.0" encoding="UTF-8"?>
<svg xmlns="http://www.w3.org/2000/svg" xmlns:xlink="http://www.w3.org/1999/xlink" width="1280" height="720" viewBox="0 0 1280 720">
<defs>
<g>
<g id="glyph-0-0">
<path d="M 2.332031 -3.046875 L 4.980469 -3.046875 L 4.980469 -2.320312 L 2.332031 -2.320312 Z M 4.980469 -1.898438 L 4.980469 -1.195312 L 2.332031 -1.195312 L 2.332031 -1.898438 Z M 4.980469 -0.773438 L 4.980469 -0.0117188 C 4.980469 0.148438 4.894531 0.226562 4.71875 0.226562 C 4.5 0.226562 4.261719 0.214844 4.007812 0.199219 L 4.125 0.640625 L 4.875 0.640625 C 5.246094 0.625 5.433594 0.460938 5.433594 0.132812 L 5.433594 -3.46875 L 2.339844 -3.46875 C 2.5 -3.714844 2.640625 -3.972656 2.773438 -4.238281 L 6.285156 -4.238281 L 6.285156 -4.707031 L 2.972656 -4.707031 C 3.066406 -4.941406 3.148438 -5.179688 3.226562 -5.425781 L 2.738281 -5.488281 C 2.660156 -5.226562 2.558594 -4.96875 2.445312 -4.707031 L 0.460938 -4.707031 L 0.460938 -4.238281 L 2.226562 -4.238281 C 1.765625 -3.378906 1.121094 -2.621094 0.28125 -1.953125 L 0.59375 -1.546875 C 1.074219 -1.933594 1.507812 -2.367188 1.878906 -2.832031 L 1.878906 0.652344 L 2.332031 0.652344 L 2.332031 -0.773438 Z "/>
</g>
<g id="glyph-0-1">
<path d="M 4.238281 -5.433594 L 4.238281 0.660156 L 4.734375 0.660156 L 4.734375 -2.886719 C 5.121094 -2.582031 5.582031 -2.148438 6.128906 -1.601562 L 6.421875 -2.039062 C 5.847656 -2.554688 5.285156 -3.011719 4.734375 -3.421875 L 4.734375 -5.433594 Z M 1.546875 -2.785156 L 1.292969 -2.414062 C 1.648438 -2.238281 2 -2 2.347656 -1.707031 C 1.878906 -0.988281 1.226562 -0.386719 0.394531 0.09375 L 0.71875 0.5 C 2.453125 -0.535156 3.425781 -2.058594 3.652344 -4.082031 L 3.652344 -4.5 L 2.035156 -4.5 C 2.125 -4.773438 2.207031 -5.058594 2.273438 -5.359375 L 1.792969 -5.441406 C 1.527344 -4.238281 1.007812 -3.28125 0.246094 -2.574219 L 0.574219 -2.167969 C 1.105469 -2.660156 1.539062 -3.28125 1.859375 -4.039062 L 3.179688 -4.039062 C 3.082031 -3.328125 2.875 -2.671875 2.566406 -2.085938 C 2.261719 -2.351562 1.921875 -2.585938 1.546875 -2.785156 Z "/>
</g>
<g id="glyph-0-2">
<path d="M 2.78125 -5.425781 L 2.78125 -4.761719 C 2.773438 -4.535156 2.765625 -4.308594 2.753906 -4.082031 L 0.773438 -4.082031 L 0.773438 -3.613281 L 2.714844 -3.613281 C 2.632812 -2.832031 2.488281 -2.167969 2.265625 -1.613281 C 1.921875 -0.839844 1.308594 -0.214844 0.433594 0.253906 L 0.695312 0.660156 C 1.585938 0.207031 2.226562 -0.425781 2.625 -1.238281 C 2.914062 -1.878906 3.105469 -2.667969 3.207031 -3.613281 L 5.3125 -3.613281 C 5.273438 -2.039062 5.195312 -1.007812 5.074219 -0.519531 C 4.953125 -0.0585938 4.707031 0.171875 4.328125 0.171875 C 4.085938 0.171875 3.828125 0.167969 3.558594 0.152344 L 3.695312 0.621094 L 4.566406 0.621094 C 4.914062 0.59375 5.167969 0.453125 5.328125 0.1875 C 5.488281 -0.09375 5.601562 -0.585938 5.667969 -1.285156 C 5.734375 -2 5.773438 -2.933594 5.800781 -4.082031 L 3.246094 -4.082031 C 3.261719 -4.300781 3.265625 -4.527344 3.273438 -4.761719 L 3.273438 -5.425781 Z "/>
</g>
<g id="glyph-0-3">
<path d="M 1.238281 -0.792969 C 1.105469 -0.792969 1.007812 -0.761719 0.925781 -0.679688 C 0.847656 -0.605469 0.808594 -0.507812 0.808594 -0.378906 C 0.808594 -0.265625 0.847656 -0.167969 0.925781 -0.0859375 C 1.007812 -0.0078125 1.101562 0.0351562 1.214844 0.0351562 C 1.28125 0.0351562 1.332031 0.0195312 1.359375 0.0078125 C 1.359375 0.167969 1.308594 0.3125 1.214844 0.453125 C 1.105469 0.585938 0.964844 0.6875 0.792969 0.746094 L 0.792969 1.074219 C 1.074219 1 1.308594 0.851562 1.480469 0.640625 C 1.652344 0.414062 1.738281 0.152344 1.738281 -0.140625 C 1.738281 -0.332031 1.695312 -0.488281 1.605469 -0.605469 C 1.511719 -0.734375 1.386719 -0.792969 1.238281 -0.792969 Z "/>
</g>
<g id="glyph-0-4">
<path d="M 0.820312 -5.378906 L 0.488281 -5.066406 C 0.972656 -4.679688 1.351562 -4.328125 1.632812 -3.992188 L 1.972656 -4.332031 C 1.660156 -4.679688 1.273438 -5.027344 0.820312 -5.378906 Z M 4.714844 0.546875 L 6.261719 0.546875 L 6.378906 0.0664062 C 6.199219 0.078125 5.945312 0.0859375 5.625 0.09375 C 5.292969 0.101562 4.96875 0.105469 4.648438 0.105469 C 4.132812 0.105469 3.707031 0.101562 3.359375 0.09375 C 2.972656 0.078125 2.671875 0.0273438 2.472656 -0.0664062 C 2.285156 -0.152344 2.121094 -0.292969 1.960938 -0.488281 C 1.90625 -0.546875 1.859375 -0.59375 1.808594 -0.632812 L 1.808594 -3.132812 L 0.40625 -3.132812 L 0.40625 -2.695312 L 1.359375 -2.695312 L 1.359375 -0.667969 C 1.078125 -0.546875 0.765625 -0.207031 0.40625 0.351562 L 0.765625 0.679688 C 1.140625 0.0664062 1.40625 -0.238281 1.566406 -0.238281 C 1.648438 -0.238281 1.734375 -0.1875 1.820312 -0.0742188 C 2.027344 0.167969 2.261719 0.332031 2.511719 0.414062 C 2.78125 0.488281 3.125 0.527344 3.546875 0.535156 C 3.96875 0.539062 4.355469 0.546875 4.714844 0.546875 Z M 2.71875 -5.066406 L 2.71875 -4.625 L 5.78125 -4.625 L 5.78125 -5.066406 Z M 2.3125 -3.554688 L 2.3125 -3.09375 L 3.714844 -3.09375 C 3.195312 -1.78125 2.800781 -1.078125 2.519531 -1 L 2.640625 -0.578125 C 3.828125 -0.695312 4.785156 -0.832031 5.519531 -1.007812 C 5.601562 -0.820312 5.671875 -0.621094 5.742188 -0.414062 L 6.167969 -0.527344 C 5.886719 -1.3125 5.566406 -2.011719 5.207031 -2.625 L 4.8125 -2.5 C 5.007812 -2.152344 5.1875 -1.792969 5.347656 -1.421875 C 4.78125 -1.285156 4.066406 -1.167969 3.199219 -1.074219 C 3.492188 -1.472656 3.820312 -2.148438 4.1875 -3.09375 L 6.265625 -3.09375 L 6.265625 -3.554688 Z "/>
</g>
<g id="glyph-0-5">
<path d="M 0.601562 -4.980469 L 0.601562 -4.519531 L 3.011719 -4.519531 L 3.011719 -4.980469 Z M 0.339844 -3.179688 L 0.339844 -2.714844 L 1.265625 -2.714844 C 0.933594 -1.5 0.667969 -0.761719 0.464844 -0.488281 C 0.441406 -0.472656 0.40625 -0.460938 0.359375 -0.445312 L 0.472656 0.0078125 C 1.300781 -0.140625 2.074219 -0.339844 2.78125 -0.59375 C 2.847656 -0.441406 2.914062 -0.28125 2.980469 -0.105469 L 3.394531 -0.320312 C 3.113281 -0.992188 2.8125 -1.613281 2.492188 -2.1875 L 2.085938 -1.988281 C 2.261719 -1.679688 2.425781 -1.351562 2.601562 -0.992188 C 2.082031 -0.800781 1.554688 -0.648438 1.027344 -0.539062 C 1.226562 -0.980469 1.460938 -1.699219 1.726562 -2.714844 L 3.265625 -2.714844 L 3.265625 -3.179688 Z M 4.265625 -5.425781 L 4.265625 -4.082031 L 3.367188 -4.082031 L 3.367188 -3.613281 L 4.265625 -3.613281 L 4.265625 -3.535156 C 4.253906 -1.738281 3.828125 -0.441406 2.992188 0.367188 L 3.351562 0.679688 C 4.261719 -0.207031 4.726562 -1.613281 4.746094 -3.535156 L 4.746094 -3.613281 L 5.734375 -3.613281 C 5.71875 -1.820312 5.695312 -0.746094 5.652344 -0.394531 C 5.601562 -0.0117188 5.40625 0.179688 5.082031 0.179688 C 4.898438 0.179688 4.6875 0.167969 4.445312 0.152344 L 4.554688 0.578125 C 4.832031 0.59375 5.027344 0.601562 5.140625 0.601562 C 5.714844 0.601562 6.039062 0.328125 6.105469 -0.214844 C 6.167969 -0.707031 6.199219 -1.992188 6.199219 -4.082031 L 4.746094 -4.082031 L 4.746094 -5.425781 Z "/>
</g>
<g id="glyph-0-6">
<path d="M 1.792969 -2.238281 C 1.339844 -1.761719 0.832031 -1.332031 0.28125 -0.964844 L 0.425781 -0.464844 C 0.933594 -0.839844 1.394531 -1.246094 1.792969 -1.671875 L 1.792969 0.648438 L 2.265625 0.648438 L 2.265625 -5.40625 L 1.792969 -5.40625 Z M 0.820312 -4.746094 L 0.367188 -4.601562 C 0.621094 -4.09375 0.851562 -3.507812 1.058594 -2.839844 L 1.480469 -3.035156 C 1.292969 -3.640625 1.074219 -4.214844 0.820312 -4.746094 Z M 5.320312 -5.3125 L 4.945312 -5.082031 C 5.292969 -4.6875 5.574219 -4.328125 5.773438 -3.992188 L 6.148438 -4.261719 C 5.953125 -4.558594 5.679688 -4.914062 5.320312 -5.3125 Z M 4.582031 -5.425781 L 4.105469 -5.425781 C 4.105469 -5.019531 4.09375 -4.425781 4.074219 -3.652344 L 2.707031 -3.652344 L 2.707031 -3.195312 L 4.046875 -3.195312 C 3.914062 -1.875 3.398438 -0.707031 2.507812 0.292969 L 2.828125 0.652344 C 3.585938 -0.160156 4.113281 -1.171875 4.394531 -2.378906 C 4.6875 -1.167969 5.253906 -0.160156 6.09375 0.632812 L 6.421875 0.273438 C 5.5 -0.539062 4.898438 -1.699219 4.613281 -3.195312 L 6.1875 -3.195312 L 6.1875 -3.652344 L 4.558594 -3.652344 C 4.574219 -4.347656 4.582031 -4.933594 4.582031 -5.425781 Z "/>
</g>
<g id="glyph-0-7">
<path d="M 3.09375 -5.507812 C 3.066406 -5.242188 3.011719 -4.988281 2.941406 -4.746094 L 0.585938 -4.746094 L 0.585938 -4.285156 L 2.773438 -4.285156 C 2.652344 -4.027344 2.507812 -3.792969 2.320312 -3.59375 C 1.898438 -3.152344 1.214844 -2.808594 0.265625 -2.566406 L 0.453125 -2.125 C 1.253906 -2.339844 1.878906 -2.605469 2.320312 -2.933594 C 2.640625 -2.679688 2.960938 -2.394531 3.28125 -2.074219 L 3.613281 -2.40625 C 3.253906 -2.734375 2.933594 -3 2.640625 -3.207031 C 2.660156 -3.234375 2.679688 -3.253906 2.707031 -3.28125 C 2.953125 -3.558594 3.152344 -3.898438 3.300781 -4.285156 L 3.398438 -4.285156 C 3.734375 -3.378906 4.632812 -2.667969 6.113281 -2.148438 L 6.367188 -2.558594 C 5.039062 -2.972656 4.214844 -3.546875 3.886719 -4.285156 L 6.019531 -4.285156 L 6.019531 -4.746094 L 3.445312 -4.746094 C 3.5 -4.972656 3.546875 -5.207031 3.574219 -5.460938 Z M 0.953125 -1.566406 C 0.828125 -0.964844 0.621094 -0.421875 0.339844 0.0742188 L 0.753906 0.332031 C 1.039062 -0.171875 1.265625 -0.773438 1.425781 -1.464844 Z M 3.480469 -1.808594 L 3.058594 -1.671875 C 3.273438 -1.332031 3.46875 -0.941406 3.652344 -0.492188 L 4.09375 -0.6875 C 3.921875 -1.085938 3.714844 -1.460938 3.480469 -1.808594 Z M 5.472656 -1.667969 L 5.011719 -1.519531 C 5.328125 -1.046875 5.613281 -0.5 5.875 0.125 L 6.3125 -0.0664062 C 6.074219 -0.640625 5.792969 -1.171875 5.472656 -1.667969 Z M 4.253906 0.527344 C 4.507812 0.527344 4.6875 0.464844 4.808594 0.351562 C 4.941406 0.21875 5.035156 -0.140625 5.082031 -0.738281 L 4.625 -0.886719 C 4.601562 -0.425781 4.546875 -0.152344 4.46875 -0.0585938 C 4.40625 0.0195312 4.308594 0.0585938 4.167969 0.0585938 L 2.714844 0.0585938 C 2.511719 0.0585938 2.421875 -0.0390625 2.421875 -0.238281 L 2.421875 -1.585938 L 1.925781 -1.585938 L 1.925781 -0.140625 C 1.925781 0.300781 2.132812 0.527344 2.558594 0.527344 Z "/>
</g>
<g id="glyph-0-8">
<path d="M 3.972656 -4 L 5.253906 -4 C 5.242188 -3.039062 5.039062 -2.214844 4.660156 -1.527344 C 4.3125 -2.101562 4.027344 -2.78125 3.8125 -3.554688 C 3.867188 -3.695312 3.921875 -3.839844 3.972656 -4 Z M 5.714844 -4 L 6.234375 -4 L 6.234375 -4.460938 L 4.105469 -4.460938 C 4.171875 -4.738281 4.238281 -5.046875 4.292969 -5.375 L 3.828125 -5.453125 C 3.652344 -4.285156 3.328125 -3.359375 2.839844 -2.679688 L 3.132812 -2.308594 C 3.285156 -2.507812 3.425781 -2.734375 3.558594 -2.988281 C 3.78125 -2.273438 4.058594 -1.648438 4.394531 -1.105469 C 3.960938 -0.519531 3.367188 -0.0664062 2.613281 0.265625 L 2.914062 0.660156 C 3.632812 0.320312 4.21875 -0.132812 4.660156 -0.699219 C 5.082031 -0.113281 5.585938 0.347656 6.171875 0.679688 L 6.445312 0.28125 C 5.859375 -0.0546875 5.359375 -0.511719 4.941406 -1.101562 C 5.425781 -1.878906 5.6875 -2.847656 5.714844 -4 Z M 1.179688 -0.347656 L 1.179688 -2.492188 L 2.671875 -2.492188 L 2.671875 -4.972656 L 0.378906 -4.972656 L 0.378906 -4.511719 L 2.207031 -4.511719 L 2.207031 -2.933594 L 0.714844 -2.933594 L 0.714844 -0.445312 C 0.714844 -0.273438 0.648438 -0.167969 0.527344 -0.113281 L 0.667969 0.300781 C 1.519531 0.0195312 2.285156 -0.292969 2.980469 -0.625 L 2.90625 -1.066406 C 2.320312 -0.773438 1.738281 -0.535156 1.179688 -0.347656 Z "/>
</g>
<g id="glyph-0-9">
<path d="M 5.09375 -4.027344 L 4.773438 -3.71875 C 5.308594 -3.359375 5.726562 -3.011719 6.035156 -2.695312 L 6.367188 -3.027344 C 6.019531 -3.359375 5.601562 -3.695312 5.09375 -4.027344 Z M 3.398438 -5.527344 L 2.878906 -5.445312 C 2.972656 -5.273438 3.058594 -5.074219 3.140625 -4.859375 L 0.464844 -4.859375 L 0.464844 -4.394531 L 2.3125 -4.394531 L 2.3125 -2.59375 L 2.792969 -2.59375 L 2.792969 -4.394531 L 3.878906 -4.394531 L 3.878906 -2.59375 L 4.359375 -2.59375 L 4.359375 -4.394531 L 6.199219 -4.394531 L 6.199219 -4.859375 L 3.625 -4.859375 C 3.554688 -5.105469 3.480469 -5.328125 3.398438 -5.527344 Z M 1.578125 -4.007812 C 1.234375 -3.648438 0.8125 -3.332031 0.308594 -3.066406 L 0.601562 -2.679688 C 1.125 -2.972656 1.574219 -3.3125 1.933594 -3.695312 Z M 0.921875 -2.238281 L 0.921875 -1.8125 L 1.445312 -1.8125 C 1.820312 -1.308594 2.300781 -0.875 2.894531 -0.5 C 2.160156 -0.1875 1.320312 0.0390625 0.359375 0.179688 L 0.578125 0.632812 C 1.648438 0.453125 2.585938 0.167969 3.386719 -0.226562 C 4.152344 0.160156 5.085938 0.445312 6.1875 0.632812 L 6.40625 0.191406 C 5.425781 0.0585938 4.574219 -0.167969 3.855469 -0.480469 C 4.492188 -0.859375 5.035156 -1.328125 5.472656 -1.875 L 5.472656 -2.238281 Z M 1.980469 -1.8125 L 4.828125 -1.8125 C 4.414062 -1.394531 3.925781 -1.027344 3.351562 -0.71875 C 2.800781 -1.019531 2.339844 -1.386719 1.980469 -1.8125 Z "/>
</g>
</g>
</defs>
<g fill="rgb(98.823529%, 38.431373%, 33.333333%)" fill-opacity="1">
<use xlink:href="#glyph-0-0" x="30" y="27.067383"/>
<use xlink:href="#glyph-0-1" x="37" y="27.067383"/>
<use xlink:href="#glyph-0-2" x="44" y="27.067383"/>
<use xlink:href="#glyph-0-3" x="51" y="27.067383"/>
<use xlink:href="#glyph-0-4" x="58" y="27.067383"/>
<use xlink:href="#glyph-0-5" x="65" y="27.067383"/>
<use xlink:href="#glyph-0-6" x="72" y="27.067383"/>
<use xlink:href="#glyph-0-7" x="79" y="27.067383"/>
<use xlink:href="#glyph-0-8" x="86" y="27.067383"/>
<use xlink:href="#glyph-0-9" x="93" y="27.067383"/>
</g>
</svg>
