<?xml version="1.0" encoding="UTF-8"?>
<svg xmlns="http://www.w3.org/2000/svg" xmlns:xlink="http://www.w3.org/1999/xlink" width="1280" height="720" viewBox="0 0 1280 720">
<defs>
<g>
<g id="glyph-0-0">
<path d="M 4.300781 -5.378906 L 4.78125 -5.378906 L 4.78125 0.898438 L 5.429688 0.898438 L 5.429688 -1.171875 L 8.082031 -1.171875 L 8.082031 -1.785156 L 5.429688 -1.785156 L 5.429688 -3.289062 L 8.027344 -3.289062 L 8.027344 -3.910156 L 5.429688 -3.910156 L 5.429688 -5.378906 L 8.417969 -5.378906 L 8.417969 -6.007812 L 4.578125 -6.007812 C 4.71875 -6.375 4.863281 -6.765625 5.003906 -7.175781 L 4.363281 -7.316406 C 3.867188 -5.8125 3.21875 -4.597656 2.4375 -3.671875 L 2.890625 -3.128906 C 3.421875 -3.769531 3.894531 -4.515625 4.300781 -5.378906 Z M 1.457031 -4.097656 L 1.457031 0.898438 L 2.117188 0.898438 L 2.117188 -5.058594 C 2.472656 -5.664062 2.773438 -6.3125 3.011719 -7.003906 L 2.410156 -7.289062 C 1.972656 -5.9375 1.269531 -4.746094 0.3125 -3.707031 L 0.523438 -3.03125 C 0.863281 -3.371094 1.171875 -3.726562 1.457031 -4.097656 Z "/>
</g>
<g id="glyph-0-1">
<path d="M 1.894531 -4.160156 L 4.152344 -4.160156 L 4.152344 -2.605469 L 1.894531 -2.605469 Z M 1.859375 -2.019531 L 4.152344 -2.019531 L 4.152344 0.585938 L 4.808594 0.585938 L 4.808594 -2.019531 L 7.226562 -2.019531 L 7.226562 -0.472656 C 7.226562 -0.0976562 7.058594 0.0898438 6.738281 0.0898438 C 6.4375 0.0898438 6.105469 0.0703125 5.75 0.0546875 L 5.921875 0.683594 L 6.941406 0.683594 C 7.566406 0.683594 7.875 0.375 7.875 -0.25 L 7.875 -6.90625 L 1.253906 -6.90625 L 1.253906 -2.640625 C 1.234375 -1.421875 0.941406 -0.417969 0.375 0.375 L 0.863281 0.808594 C 1.429688 0.0625 1.761719 -0.878906 1.859375 -2.019531 Z M 7.226562 -2.605469 L 4.808594 -2.605469 L 4.808594 -4.160156 L 7.226562 -4.160156 Z M 7.226562 -4.757812 L 4.808594 -4.757812 L 4.808594 -6.285156 L 7.226562 -6.285156 Z M 4.152344 -6.285156 L 4.152344 -4.757812 L 1.894531 -4.757812 L 1.894531 -6.285156 Z "/>
</g>
<g id="glyph-0-2">
<path d="M 3.707031 -7.234375 L 3.707031 -6.347656 C 3.699219 -6.046875 3.6875 -5.742188 3.671875 -5.441406 L 1.03125 -5.441406 L 1.03125 -4.816406 L 3.617188 -4.816406 C 3.511719 -3.777344 3.316406 -2.890625 3.023438 -2.152344 C 2.558594 -1.121094 1.742188 -0.285156 0.578125 0.335938 L 0.925781 0.878906 C 2.117188 0.277344 2.96875 -0.570312 3.503906 -1.652344 C 3.886719 -2.507812 4.140625 -3.554688 4.277344 -4.816406 L 7.085938 -4.816406 C 7.03125 -2.71875 6.925781 -1.34375 6.765625 -0.695312 C 6.605469 -0.078125 6.277344 0.230469 5.769531 0.230469 C 5.449219 0.230469 5.101562 0.222656 4.746094 0.203125 L 4.925781 0.828125 L 6.089844 0.828125 C 6.550781 0.792969 6.890625 0.605469 7.101562 0.25 C 7.316406 -0.125 7.46875 -0.78125 7.554688 -1.714844 C 7.644531 -2.667969 7.699219 -3.910156 7.734375 -5.441406 L 4.328125 -5.441406 C 4.347656 -5.734375 4.355469 -6.035156 4.363281 -6.347656 L 4.363281 -7.234375 Z "/>
</g>
<g id="glyph-0-3">
<path d="M 8.089844 -6.660156 L 4.695312 -6.660156 L 4.695312 0.621094 L 5.308594 0.621094 L 5.308594 -0.167969 L 7.46875 -0.167969 L 7.46875 0.535156 L 8.089844 0.535156 Z M 5.308594 -0.773438 L 5.308594 -6.0625 L 7.46875 -6.0625 L 7.46875 -0.773438 Z M 0.632812 -4.816406 L 0.632812 -4.222656 L 2.1875 -4.222656 L 2.1875 -4.160156 C 1.824219 -3.183594 1.226562 -2.300781 0.398438 -1.519531 L 0.667969 -0.828125 C 1.296875 -1.511719 1.804688 -2.277344 2.1875 -3.121094 L 2.1875 0.828125 L 2.808594 0.828125 L 2.808594 -3.183594 C 3.136719 -2.808594 3.527344 -2.300781 3.992188 -1.671875 L 4.363281 -2.222656 C 3.839844 -2.808594 3.324219 -3.324219 2.808594 -3.777344 L 2.808594 -4.222656 L 4.328125 -4.222656 L 4.328125 -4.816406 L 2.808594 -4.816406 L 2.808594 -6.222656 C 3.308594 -6.328125 3.777344 -6.472656 4.242188 -6.640625 L 3.9375 -7.175781 C 3.050781 -6.835938 1.945312 -6.613281 0.621094 -6.507812 L 0.828125 -5.9375 C 1.289062 -5.972656 1.742188 -6.027344 2.1875 -6.097656 L 2.1875 -4.816406 Z "/>
</g>
<g id="glyph-0-4">
<path d="M 2.863281 -3.957031 C 3.183594 -2.878906 3.8125 -1.921875 4.757812 -1.074219 C 3.984375 -0.507812 3.023438 -0.0195312 1.882812 0.375 L 2.238281 0.914062 C 3.429688 0.488281 4.445312 -0.0351562 5.261719 -0.667969 C 6.035156 -0.078125 6.996094 0.453125 8.152344 0.914062 L 8.5 0.355469 C 7.414062 -0.0546875 6.488281 -0.523438 5.726562 -1.058594 C 6.621094 -1.875 7.246094 -2.855469 7.582031 -3.992188 L 7.582031 -4.558594 L 2.230469 -4.558594 L 2.230469 -6.0625 C 4.320312 -6.117188 6.203125 -6.304688 7.894531 -6.621094 L 7.589844 -7.175781 C 5.8125 -6.828125 3.8125 -6.640625 1.589844 -6.613281 L 1.589844 -3.867188 C 1.539062 -2.054688 1.148438 -0.640625 0.417969 0.390625 L 0.871094 0.863281 C 1.714844 -0.3125 2.167969 -1.894531 2.230469 -3.867188 L 2.230469 -3.957031 Z M 5.21875 -1.449219 C 4.355469 -2.179688 3.769531 -3.011719 3.46875 -3.957031 L 6.933594 -3.957031 C 6.605469 -3.003906 6.035156 -2.167969 5.21875 -1.449219 Z "/>
</g>
<g id="glyph-0-5">
<path d="M 1.644531 -5.699219 L 1.644531 -2.800781 L 7.246094 -2.800781 L 7.246094 -5.699219 L 5.761719 -5.699219 C 6.054688 -6.089844 6.339844 -6.570312 6.621094 -7.136719 L 6.007812 -7.359375 C 5.75 -6.765625 5.441406 -6.214844 5.066406 -5.699219 Z M 6.605469 -3.40625 L 2.285156 -3.40625 L 2.285156 -5.09375 L 6.605469 -5.09375 Z M 2.738281 -7.324219 L 2.195312 -7.058594 C 2.535156 -6.667969 2.855469 -6.230469 3.15625 -5.734375 L 3.699219 -6 C 3.394531 -6.480469 3.074219 -6.925781 2.738281 -7.324219 Z M 1.269531 -2.0625 C 1.085938 -1.261719 0.792969 -0.523438 0.382812 0.140625 L 0.925781 0.488281 C 1.332031 -0.1875 1.652344 -0.996094 1.882812 -1.929688 Z M 4.621094 -2.445312 L 4.0625 -2.257812 C 4.363281 -1.804688 4.640625 -1.289062 4.890625 -0.703125 L 5.476562 -0.960938 C 5.234375 -1.492188 4.953125 -1.980469 4.621094 -2.445312 Z M 7.421875 -2.230469 L 6.808594 -2.035156 C 7.199219 -1.386719 7.554688 -0.640625 7.875 0.214844 L 8.464844 -0.0429688 C 8.167969 -0.828125 7.824219 -1.554688 7.421875 -2.230469 Z M 5.714844 0.773438 C 6.054688 0.773438 6.304688 0.703125 6.460938 0.558594 C 6.640625 0.375 6.765625 -0.125 6.828125 -0.925781 L 6.214844 -1.121094 C 6.179688 -0.496094 6.117188 -0.125 6.007812 0.0078125 C 5.929688 0.117188 5.796875 0.167969 5.601562 0.167969 L 3.644531 0.167969 C 3.386719 0.167969 3.261719 0.0273438 3.261719 -0.25 L 3.261719 -1.980469 L 2.613281 -1.980469 L 2.613281 -0.117188 C 2.613281 0.472656 2.890625 0.773438 3.449219 0.773438 Z "/>
</g>
<g id="glyph-0-6">
<path d="M 1.777344 -6.960938 L 1.777344 -3.875 L 7.183594 -3.875 L 7.183594 -6.960938 Z M 6.550781 -4.417969 L 2.410156 -4.417969 L 2.410156 -5.148438 L 6.550781 -5.148438 Z M 2.410156 -5.671875 L 2.410156 -6.410156 L 6.550781 -6.410156 L 6.550781 -5.671875 Z M 4.222656 -2.632812 L 4.222656 0.0273438 C 4.035156 -0.0078125 3.875 -0.0546875 3.734375 -0.0976562 C 3.269531 -0.265625 2.84375 -0.65625 2.472656 -1.28125 C 2.585938 -1.574219 2.683594 -1.882812 2.773438 -2.214844 L 2.167969 -2.320312 C 1.875 -1.210938 1.316406 -0.320312 0.496094 0.335938 L 0.914062 0.863281 C 1.449219 0.425781 1.894531 -0.117188 2.238281 -0.773438 C 2.597656 -0.1875 3.003906 0.203125 3.457031 0.410156 C 3.984375 0.632812 4.976562 0.746094 6.445312 0.746094 C 6.953125 0.753906 7.519531 0.765625 8.160156 0.765625 L 8.339844 0.160156 C 7.8125 0.179688 7.164062 0.1875 6.402344 0.1875 C 5.8125 0.1875 5.296875 0.160156 4.871094 0.125 L 4.871094 -1.058594 L 7.433594 -1.058594 L 7.433594 -1.625 L 4.871094 -1.625 L 4.871094 -2.632812 L 8.382812 -2.632812 L 8.382812 -3.21875 L 0.515625 -3.21875 L 0.515625 -2.632812 Z "/>
</g>
<g id="glyph-0-7">
<path d="M 6.613281 -7.289062 L 6.203125 -6.898438 C 6.660156 -6.550781 7.015625 -6.222656 7.28125 -5.902344 L 5.617188 -5.902344 C 5.601562 -6.328125 5.589844 -6.78125 5.589844 -7.28125 L 4.933594 -7.28125 C 4.933594 -6.800781 4.941406 -6.347656 4.960938 -5.902344 L 1.289062 -5.902344 L 1.289062 -2.941406 C 1.261719 -1.492188 0.96875 -0.363281 0.398438 0.453125 L 0.890625 0.890625 C 1.546875 -0.0703125 1.902344 -1.351562 1.9375 -2.941406 L 1.9375 -3.210938 L 3.476562 -3.210938 C 3.457031 -2.230469 3.429688 -1.589844 3.378906 -1.289062 C 3.324219 -1.039062 3.199219 -0.90625 3.003906 -0.898438 C 2.765625 -0.898438 2.472656 -0.90625 2.125 -0.925781 L 2.320312 -0.347656 C 2.605469 -0.328125 2.863281 -0.3125 3.074219 -0.3125 C 3.519531 -0.328125 3.796875 -0.523438 3.910156 -0.90625 C 4.027344 -1.34375 4.097656 -2.3125 4.117188 -3.8125 L 1.9375 -3.8125 L 1.9375 -5.289062 L 4.988281 -5.289062 C 5.058594 -4.179688 5.183594 -3.246094 5.378906 -2.496094 C 5.476562 -2.117188 5.589844 -1.761719 5.714844 -1.429688 C 5.101562 -0.65625 4.347656 -0.0703125 3.457031 0.328125 L 3.8125 0.863281 C 4.648438 0.488281 5.378906 -0.0546875 6 -0.78125 C 6.132812 -0.507812 6.285156 -0.257812 6.445312 -0.0429688 C 6.871094 0.488281 7.273438 0.753906 7.644531 0.753906 C 8.046875 0.753906 8.347656 0.160156 8.5625 -1.023438 L 7.984375 -1.34375 C 7.847656 -0.425781 7.699219 0.0351562 7.539062 0.0429688 C 7.359375 0.0429688 7.121094 -0.167969 6.828125 -0.59375 C 6.683594 -0.800781 6.550781 -1.050781 6.425781 -1.332031 C 6.996094 -2.132812 7.457031 -3.128906 7.8125 -4.300781 L 7.234375 -4.550781 C 6.960938 -3.601562 6.605469 -2.765625 6.160156 -2.054688 C 6.097656 -2.25 6.035156 -2.453125 5.984375 -2.675781 C 5.824219 -3.316406 5.707031 -4.1875 5.644531 -5.289062 L 8.382812 -5.289062 L 8.382812 -5.902344 L 7.296875 -5.902344 L 7.707031 -6.3125 C 7.40625 -6.640625 7.039062 -6.96875 6.613281 -7.289062 Z "/>
</g>
<g id="glyph-0-8">
<path d="M 4.242188 -5.539062 L 4.242188 -4.925781 L 6.820312 -4.925781 L 6.820312 -0.195312 C 6.820312 0.117188 6.648438 0.277344 6.320312 0.277344 C 5.910156 0.277344 5.476562 0.257812 5.015625 0.230469 L 5.148438 0.863281 L 6.542969 0.863281 C 7.148438 0.863281 7.457031 0.558594 7.457031 -0.0351562 L 7.457031 -4.925781 L 8.445312 -4.925781 L 8.445312 -5.539062 L 7.457031 -5.539062 L 7.457031 -7.28125 L 6.820312 -7.28125 L 6.820312 -5.539062 Z M 1.058594 -4.960938 L 0.632812 -4.558594 C 1.253906 -3.867188 1.824219 -3.183594 2.320312 -2.515625 C 1.859375 -1.644531 1.210938 -0.890625 0.375 -0.25 L 0.746094 0.3125 C 1.566406 -0.363281 2.222656 -1.128906 2.710938 -1.980469 C 3.03125 -1.527344 3.324219 -1.085938 3.589844 -0.640625 L 4.054688 -1.101562 C 3.742188 -1.601562 3.394531 -2.105469 3.023438 -2.605469 C 3.484375 -3.589844 3.734375 -4.695312 3.777344 -5.902344 L 3.777344 -6.375 L 0.765625 -6.375 L 0.765625 -5.75 L 3.199219 -5.75 C 3.136719 -4.808594 2.941406 -3.9375 2.613281 -3.136719 C 2.132812 -3.742188 1.617188 -4.355469 1.058594 -4.960938 Z M 4.71875 -3.875 L 4.230469 -3.519531 C 4.78125 -2.835938 5.234375 -2.1875 5.589844 -1.574219 L 6.097656 -1.929688 C 5.777344 -2.496094 5.316406 -3.148438 4.71875 -3.875 Z "/>
</g>
<g id="glyph-0-9">
<path d="M 6.855469 -4.167969 L 4.773438 -4.167969 L 4.773438 -7.273438 L 4.117188 -7.273438 L 4.117188 -4.167969 L 2.035156 -4.167969 L 2.035156 -6.597656 L 1.394531 -6.597656 L 1.394531 -3.546875 L 4.117188 -3.546875 L 4.117188 -0.285156 L 1.609375 -0.285156 L 1.609375 -2.710938 L 0.960938 -2.710938 L 0.960938 0.328125 L 7.28125 0.328125 L 7.28125 0.828125 L 7.929688 0.828125 L 7.929688 -2.710938 L 7.28125 -2.710938 L 7.28125 -0.285156 L 4.773438 -0.285156 L 4.773438 -3.546875 L 7.492188 -3.546875 L 7.492188 -6.597656 L 6.855469 -6.597656 Z "/>
</g>
<g id="glyph-0-10">
<path d="M 7.804688 -6.90625 L 3.859375 -6.90625 L 3.859375 -1.992188 L 4.488281 -1.992188 L 4.488281 -6.292969 L 7.15625 -6.292969 L 7.15625 -1.992188 L 7.804688 -1.992188 Z M 7.609375 0.746094 C 7.894531 0.746094 8.105469 0.675781 8.25 0.542969 C 8.402344 0.382812 8.507812 -0.0703125 8.5625 -0.800781 L 7.964844 -0.988281 C 7.929688 -0.4375 7.875 -0.0976562 7.804688 0.0195312 C 7.742188 0.105469 7.636719 0.160156 7.492188 0.160156 L 6.871094 0.160156 C 6.683594 0.160156 6.597656 0.0625 6.597656 -0.125 L 6.597656 -2.027344 L 5.957031 -2.027344 L 5.957031 0.0078125 C 5.957031 0.496094 6.195312 0.746094 6.683594 0.746094 Z M 5.484375 -5.664062 L 5.484375 -3.492188 C 5.46875 -2.496094 5.273438 -1.6875 4.914062 -1.066406 C 4.535156 -0.480469 3.859375 0 2.898438 0.375 L 3.246094 0.914062 C 4.242188 0.542969 4.953125 0.0195312 5.378906 -0.640625 C 5.824219 -1.351562 6.0625 -2.300781 6.097656 -3.492188 L 6.097656 -5.664062 Z M 0.558594 -3.972656 L 0.558594 -3.351562 L 1.582031 -3.351562 L 1.582031 -1.136719 C 1.191406 -1.03125 0.800781 -0.941406 0.398438 -0.871094 L 0.550781 -0.257812 C 1.554688 -0.496094 2.496094 -0.792969 3.378906 -1.148438 L 3.378906 -1.761719 C 3.003906 -1.609375 2.632812 -1.464844 2.238281 -1.332031 L 2.238281 -3.351562 L 3.234375 -3.351562 L 3.234375 -3.972656 L 2.238281 -3.972656 L 2.238281 -6.054688 L 3.359375 -6.054688 L 3.359375 -6.667969 L 0.445312 -6.667969 L 0.445312 -6.054688 L 1.582031 -6.054688 L 1.582031 -3.972656 Z "/>
</g>
</g>
</defs>
<g fill="rgb(100%, 100%, 0%)" fill-opacity="1">
<use xlink:href="#glyph-0-0" x="30" y="29.422852"/>
<use xlink:href="#glyph-0-1" x="39" y="29.422852"/>
<use xlink:href="#glyph-0-2" x="48" y="29.422852"/>
<use xlink:href="#glyph-0-3" x="57" y="29.422852"/>
<use xlink:href="#glyph-0-4" x="66" y="29.422852"/>
<use xlink:href="#glyph-0-0" x="75" y="29.422852"/>
<use xlink:href="#glyph-0-1" x="84" y="29.422852"/>
<use xlink:href="#glyph-0-2" x="93" y="29.422852"/>
<use xlink:href="#glyph-0-5" x="102" y="29.422852"/>
<use xlink:href="#glyph-0-6" x="111" y="29.422852"/>
<use xlink:href="#glyph-0-7" x="120" y="29.422852"/>
<use xlink:href="#glyph-0-8" x="129" y="29.422852"/>
<use xlink:href="#glyph-0-9" x="138" y="29.422852"/>
<use xlink:href="#glyph-0-10" x="147" y="29.422852"/>
</g>
</svg>
